<mxfile host="app.diagrams.net" agent="Mozilla/5.0 (Windows NT 10.0; Win64; x64) AppleWebKit/537.36 (KHTML, like Gecko) Chrome/135.0.0.0 Safari/537.36" version="26.2.9">
  <diagram name="Page-1" id="0783ab3e-0a74-02c8-0abd-f7b4e66b4bec">
    <mxGraphModel dx="3134" dy="-80" grid="1" gridSize="10" guides="1" tooltips="1" connect="1" arrows="1" fold="1" page="1" pageScale="1" pageWidth="850" pageHeight="1100" background="none" math="0" shadow="0">
      <root>
        <mxCell id="0" />
        <mxCell id="1" parent="0" />
        <mxCell id="Hz0r1GJ9_ltTa88L3Xgl-5" style="edgeStyle=orthogonalEdgeStyle;rounded=0;orthogonalLoop=1;jettySize=auto;html=1;exitX=0.49;exitY=0.821;exitDx=0;exitDy=0;exitPerimeter=0;fontColor=default;labelBackgroundColor=none;fontSize=11;fontStyle=1;fontFamily=Georgia;" parent="1" source="Hz0r1GJ9_ltTa88L3Xgl-1" target="Hz0r1GJ9_ltTa88L3Xgl-3" edge="1">
          <mxGeometry relative="1" as="geometry" />
        </mxCell>
        <mxCell id="Hz0r1GJ9_ltTa88L3Xgl-1" value="" style="ellipse;html=1;shape=startState;fillColor=#000000;strokeColor=default;fontColor=default;labelBackgroundColor=none;fontSize=11;fontStyle=1;fontFamily=Georgia;" parent="1" vertex="1">
          <mxGeometry x="425" y="1100" width="40" height="40" as="geometry" />
        </mxCell>
        <mxCell id="Hz0r1GJ9_ltTa88L3Xgl-9" style="edgeStyle=orthogonalEdgeStyle;rounded=0;orthogonalLoop=1;jettySize=auto;html=1;exitX=0.5;exitY=1;exitDx=0;exitDy=0;entryX=0.5;entryY=0;entryDx=0;entryDy=0;fontColor=default;labelBackgroundColor=none;fontSize=11;fontStyle=1;fontFamily=Georgia;" parent="1" source="Hz0r1GJ9_ltTa88L3Xgl-3" target="Hz0r1GJ9_ltTa88L3Xgl-6" edge="1">
          <mxGeometry relative="1" as="geometry" />
        </mxCell>
        <mxCell id="Hz0r1GJ9_ltTa88L3Xgl-3" value="login" style="rounded=1;whiteSpace=wrap;html=1;arcSize=40;fontColor=default;fillColor=#ffffc0;strokeColor=default;labelBackgroundColor=none;fontSize=11;fontStyle=1;fontFamily=Georgia;" parent="1" vertex="1">
          <mxGeometry x="385" y="1180" width="120" height="30" as="geometry" />
        </mxCell>
        <mxCell id="Hz0r1GJ9_ltTa88L3Xgl-6" value="&lt;span style=&quot;letter-spacing: -0.4px; text-align: left; white-space: pre;&quot;&gt;ConnectÃ©?&lt;/span&gt;" style="rhombus;whiteSpace=wrap;html=1;fontColor=default;fillColor=#ffffc0;strokeColor=default;labelBackgroundColor=none;fontSize=11;fontStyle=1;fontFamily=Georgia;" parent="1" vertex="1">
          <mxGeometry x="405" y="1230" width="80" height="40" as="geometry" />
        </mxCell>
        <mxCell id="Hz0r1GJ9_ltTa88L3Xgl-7" value="no" style="edgeStyle=orthogonalEdgeStyle;html=1;align=left;verticalAlign=bottom;endArrow=open;endSize=8;strokeColor=#000000;rounded=0;exitX=1;exitY=0.5;exitDx=0;exitDy=0;fontColor=default;labelBackgroundColor=none;fontFamily=Georgia;fontSize=11;fontStyle=1" parent="1" source="Hz0r1GJ9_ltTa88L3Xgl-6" edge="1">
          <mxGeometry x="-1" relative="1" as="geometry">
            <mxPoint x="671.0000000000001" y="1230" as="targetPoint" />
            <mxPoint x="570" y="1249.75" as="sourcePoint" />
            <Array as="points">
              <mxPoint x="671" y="1250" />
            </Array>
          </mxGeometry>
        </mxCell>
        <mxCell id="Hz0r1GJ9_ltTa88L3Xgl-8" value="yes" style="edgeStyle=orthogonalEdgeStyle;html=1;align=left;verticalAlign=top;endArrow=open;endSize=8;strokeColor=#000000;rounded=0;fontColor=default;labelBackgroundColor=none;fontSize=11;fontStyle=1;fontFamily=Georgia;" parent="1" source="Hz0r1GJ9_ltTa88L3Xgl-6" target="x7ulBtDoPjCledtimS2O-2" edge="1">
          <mxGeometry x="-1" relative="1" as="geometry">
            <mxPoint x="445" y="1310" as="targetPoint" />
          </mxGeometry>
        </mxCell>
        <mxCell id="Hz0r1GJ9_ltTa88L3Xgl-22" style="edgeStyle=orthogonalEdgeStyle;rounded=0;orthogonalLoop=1;jettySize=auto;html=1;exitX=0.5;exitY=0;exitDx=0;exitDy=0;fontColor=default;labelBackgroundColor=none;fontSize=11;fontStyle=1;fontFamily=Georgia;" parent="1" source="Hz0r1GJ9_ltTa88L3Xgl-14" edge="1">
          <mxGeometry relative="1" as="geometry">
            <mxPoint x="445" y="1150" as="targetPoint" />
            <Array as="points">
              <mxPoint x="620" y="1150" />
            </Array>
          </mxGeometry>
        </mxCell>
        <mxCell id="Hz0r1GJ9_ltTa88L3Xgl-14" value="reset password" style="rounded=1;whiteSpace=wrap;html=1;arcSize=40;fontColor=default;fillColor=#ffffc0;strokeColor=default;labelBackgroundColor=none;fontFamily=Georgia;fontSize=11;fontStyle=1" parent="1" vertex="1">
          <mxGeometry x="570" y="1185.25" width="100" height="19.5" as="geometry" />
        </mxCell>
        <mxCell id="Hz0r1GJ9_ltTa88L3Xgl-21" style="edgeStyle=orthogonalEdgeStyle;rounded=0;orthogonalLoop=1;jettySize=auto;html=1;fontColor=default;labelBackgroundColor=none;fontFamily=Georgia;fontSize=11;fontStyle=1" parent="1" source="Hz0r1GJ9_ltTa88L3Xgl-16" edge="1">
          <mxGeometry relative="1" as="geometry">
            <mxPoint x="445" y="1160" as="targetPoint" />
            <Array as="points">
              <mxPoint x="740" y="1160" />
            </Array>
          </mxGeometry>
        </mxCell>
        <mxCell id="Hz0r1GJ9_ltTa88L3Xgl-16" value="sign up" style="rounded=1;whiteSpace=wrap;html=1;arcSize=40;fontColor=default;fillColor=#ffffc0;strokeColor=default;labelBackgroundColor=none;fontFamily=Georgia;fontSize=11;fontStyle=1" parent="1" vertex="1">
          <mxGeometry x="690" y="1185.25" width="100" height="19.5" as="geometry" />
        </mxCell>
        <mxCell id="Hz0r1GJ9_ltTa88L3Xgl-19" style="edgeStyle=orthogonalEdgeStyle;rounded=0;orthogonalLoop=1;jettySize=auto;html=1;entryX=0.5;entryY=1;entryDx=0;entryDy=0;fontColor=default;labelBackgroundColor=none;fontFamily=Georgia;fontSize=11;fontStyle=1" parent="1" source="Hz0r1GJ9_ltTa88L3Xgl-18" target="Hz0r1GJ9_ltTa88L3Xgl-16" edge="1">
          <mxGeometry relative="1" as="geometry">
            <Array as="points">
              <mxPoint x="740" y="1225" />
            </Array>
          </mxGeometry>
        </mxCell>
        <mxCell id="Hz0r1GJ9_ltTa88L3Xgl-20" style="edgeStyle=orthogonalEdgeStyle;rounded=0;orthogonalLoop=1;jettySize=auto;html=1;entryX=0.25;entryY=1;entryDx=0;entryDy=0;fontColor=default;labelBackgroundColor=none;fontSize=11;fontStyle=1;fontFamily=Georgia;" parent="1" source="Hz0r1GJ9_ltTa88L3Xgl-18" target="Hz0r1GJ9_ltTa88L3Xgl-14" edge="1">
          <mxGeometry relative="1" as="geometry">
            <Array as="points">
              <mxPoint x="595" y="1225" />
            </Array>
          </mxGeometry>
        </mxCell>
        <mxCell id="Hz0r1GJ9_ltTa88L3Xgl-18" value="" style="rounded=0;whiteSpace=wrap;html=1;fillColor=none;strokeColor=default;fontColor=default;labelBackgroundColor=none;fontFamily=Georgia;fontSize=11;fontStyle=1" parent="1" vertex="1">
          <mxGeometry x="610" y="1220" width="120" height="10" as="geometry" />
        </mxCell>
        <mxCell id="x7ulBtDoPjCledtimS2O-2" value="Admin ?" style="rhombus;whiteSpace=wrap;html=1;fontColor=default;fillColor=#ffffc0;strokeColor=default;labelBackgroundColor=none;fontSize=11;fontStyle=1;fontFamily=Georgia;" vertex="1" parent="1">
          <mxGeometry x="405" y="1310" width="80" height="40" as="geometry" />
        </mxCell>
        <mxCell id="x7ulBtDoPjCledtimS2O-3" value="yes" style="edgeStyle=orthogonalEdgeStyle;html=1;align=left;verticalAlign=bottom;endArrow=open;endSize=8;strokeColor=#000000;rounded=0;exitX=1;exitY=0.5;exitDx=0;exitDy=0;fontColor=default;labelBackgroundColor=none;fontFamily=Georgia;fontSize=11;fontStyle=1" edge="1" source="x7ulBtDoPjCledtimS2O-2" parent="1">
          <mxGeometry x="-1" relative="1" as="geometry">
            <mxPoint x="671" y="1350" as="targetPoint" />
            <mxPoint x="570" y="1329.75" as="sourcePoint" />
            <Array as="points">
              <mxPoint x="671" y="1330" />
            </Array>
          </mxGeometry>
        </mxCell>
        <mxCell id="x7ulBtDoPjCledtimS2O-6" value="no" style="edgeStyle=orthogonalEdgeStyle;html=1;align=left;verticalAlign=bottom;endArrow=open;endSize=8;strokeColor=#000000;rounded=0;exitX=0;exitY=0.5;exitDx=0;exitDy=0;entryX=0.5;entryY=0;entryDx=0;entryDy=0;labelBackgroundColor=none;fontColor=default;fontFamily=Georgia;fontStyle=1;fontSize=11;" edge="1" parent="1" source="x7ulBtDoPjCledtimS2O-2" target="x7ulBtDoPjCledtimS2O-8">
          <mxGeometry x="-0.5385" relative="1" as="geometry">
            <mxPoint y="1300" as="targetPoint" />
            <mxPoint x="95" y="1325" as="sourcePoint" />
            <Array as="points">
              <mxPoint x="405" y="1320" />
              <mxPoint x="-17" y="1320" />
            </Array>
            <mxPoint as="offset" />
          </mxGeometry>
        </mxCell>
        <mxCell id="x7ulBtDoPjCledtimS2O-51" style="edgeStyle=orthogonalEdgeStyle;rounded=0;orthogonalLoop=1;jettySize=auto;html=1;entryX=0.5;entryY=0;entryDx=0;entryDy=0;fontColor=default;labelBackgroundColor=none;fontFamily=Georgia;fontSize=11;fontStyle=1" edge="1" parent="1" source="x7ulBtDoPjCledtimS2O-7" target="x7ulBtDoPjCledtimS2O-50">
          <mxGeometry relative="1" as="geometry" />
        </mxCell>
        <mxCell id="x7ulBtDoPjCledtimS2O-7" value="&lt;span style=&quot;letter-spacing: -0.4px; text-align: left; white-space: pre;&quot;&gt;Tableau de bord Admin&lt;/span&gt;" style="rounded=1;whiteSpace=wrap;html=1;arcSize=40;fontColor=default;fillColor=#ffffc0;strokeColor=default;labelBackgroundColor=none;fontFamily=Georgia;fontSize=11;fontStyle=1" vertex="1" parent="1">
          <mxGeometry x="620" y="1350" width="130" height="19.5" as="geometry" />
        </mxCell>
        <mxCell id="x7ulBtDoPjCledtimS2O-23" style="edgeStyle=orthogonalEdgeStyle;rounded=0;orthogonalLoop=1;jettySize=auto;html=1;exitX=0.5;exitY=1;exitDx=0;exitDy=0;entryX=0.5;entryY=0;entryDx=0;entryDy=0;labelBackgroundColor=none;fontColor=default;fontFamily=Georgia;fontStyle=1;fontSize=11;" edge="1" parent="1" source="x7ulBtDoPjCledtimS2O-8" target="x7ulBtDoPjCledtimS2O-21">
          <mxGeometry relative="1" as="geometry" />
        </mxCell>
        <mxCell id="x7ulBtDoPjCledtimS2O-8" value="&lt;span style=&quot;letter-spacing: -0.4px; text-align: left; white-space: pre;&quot;&gt;Tableau de bord Ãtudiant&lt;/span&gt;" style="rounded=1;whiteSpace=wrap;html=1;arcSize=40;fontColor=default;fillColor=#ffffc0;strokeColor=default;labelBackgroundColor=none;fontSize=11;fontStyle=1;fontFamily=Georgia;" vertex="1" parent="1">
          <mxGeometry x="-100" y="1335.5" width="180" height="30" as="geometry" />
        </mxCell>
        <mxCell id="x7ulBtDoPjCledtimS2O-33" style="edgeStyle=orthogonalEdgeStyle;rounded=0;orthogonalLoop=1;jettySize=auto;html=1;entryX=0.5;entryY=0;entryDx=0;entryDy=0;fontColor=default;labelBackgroundColor=none;fontFamily=Georgia;fontSize=11;fontStyle=1" edge="1" parent="1" source="x7ulBtDoPjCledtimS2O-9" target="x7ulBtDoPjCledtimS2O-11">
          <mxGeometry relative="1" as="geometry" />
        </mxCell>
        <mxCell id="x7ulBtDoPjCledtimS2O-9" value="&lt;span style=&quot;letter-spacing: -0.4px; text-align: left; white-space: pre;&quot;&gt;Rejoindre Ã©quipe&lt;/span&gt;" style="rounded=1;whiteSpace=wrap;html=1;arcSize=40;fontColor=default;fillColor=#ffffc0;strokeColor=default;labelBackgroundColor=none;fontSize=11;fontStyle=1;fontFamily=Georgia;" vertex="1" parent="1">
          <mxGeometry x="23" y="1461" width="120" height="30" as="geometry" />
        </mxCell>
        <mxCell id="x7ulBtDoPjCledtimS2O-66" style="edgeStyle=orthogonalEdgeStyle;rounded=0;orthogonalLoop=1;jettySize=auto;html=1;exitX=0.5;exitY=1;exitDx=0;exitDy=0;entryX=0.5;entryY=0;entryDx=0;entryDy=0;fontColor=default;labelBackgroundColor=none;fontFamily=Georgia;fontSize=11;fontStyle=1" edge="1" parent="1" source="x7ulBtDoPjCledtimS2O-10" target="x7ulBtDoPjCledtimS2O-57">
          <mxGeometry relative="1" as="geometry">
            <Array as="points">
              <mxPoint x="233" y="1660" />
              <mxPoint x="250" y="1660" />
            </Array>
          </mxGeometry>
        </mxCell>
        <mxCell id="x7ulBtDoPjCledtimS2O-10" value="&lt;span style=&quot;letter-spacing: -0.4px; text-align: left; white-space: pre;&quot;&gt;Consulter notifications&lt;/span&gt;" style="rounded=1;whiteSpace=wrap;html=1;arcSize=40;fontColor=default;fillColor=#ffffc0;strokeColor=default;labelBackgroundColor=none;fontSize=11;fontStyle=1;fontFamily=Georgia;" vertex="1" parent="1">
          <mxGeometry x="173" y="1461" width="120" height="30" as="geometry" />
        </mxCell>
        <mxCell id="x7ulBtDoPjCledtimS2O-37" value="" style="edgeStyle=orthogonalEdgeStyle;rounded=0;orthogonalLoop=1;jettySize=auto;html=1;fontColor=default;labelBackgroundColor=none;fontFamily=Georgia;fontSize=11;fontStyle=1" edge="1" parent="1" source="x7ulBtDoPjCledtimS2O-11" target="x7ulBtDoPjCledtimS2O-36">
          <mxGeometry relative="1" as="geometry" />
        </mxCell>
        <mxCell id="x7ulBtDoPjCledtimS2O-11" value="&lt;span style=&quot;letter-spacing: -0.4px; text-align: left; white-space: pre;&quot;&gt;Rechercher tournois&lt;/span&gt;" style="rounded=1;whiteSpace=wrap;html=1;arcSize=40;fontColor=default;fillColor=#ffffc0;strokeColor=default;labelBackgroundColor=none;fontSize=11;fontStyle=1;fontFamily=Georgia;" vertex="1" parent="1">
          <mxGeometry x="-40" y="1530" width="120" height="30" as="geometry" />
        </mxCell>
        <mxCell id="x7ulBtDoPjCledtimS2O-32" style="edgeStyle=orthogonalEdgeStyle;rounded=0;orthogonalLoop=1;jettySize=auto;html=1;exitX=0.5;exitY=1;exitDx=0;exitDy=0;entryX=0.5;entryY=0;entryDx=0;entryDy=0;fontColor=default;labelBackgroundColor=none;fontFamily=Georgia;fontSize=11;fontStyle=1" edge="1" parent="1" source="x7ulBtDoPjCledtimS2O-12" target="x7ulBtDoPjCledtimS2O-11">
          <mxGeometry relative="1" as="geometry" />
        </mxCell>
        <mxCell id="x7ulBtDoPjCledtimS2O-12" value="&lt;span style=&quot;letter-spacing: -0.4px; text-align: left; white-space: pre;&quot;&gt;CrÃ©er Ã©quipe&lt;/span&gt;" style="rounded=1;whiteSpace=wrap;html=1;arcSize=40;fontColor=default;fillColor=#ffffc0;strokeColor=default;labelBackgroundColor=none;fontSize=11;fontStyle=1;fontFamily=Georgia;" vertex="1" parent="1">
          <mxGeometry x="-107" y="1461" width="120" height="30" as="geometry" />
        </mxCell>
        <mxCell id="x7ulBtDoPjCledtimS2O-41" style="edgeStyle=orthogonalEdgeStyle;rounded=0;orthogonalLoop=1;jettySize=auto;html=1;exitX=0.5;exitY=1;exitDx=0;exitDy=0;entryX=0.5;entryY=0;entryDx=0;entryDy=0;fontColor=default;labelBackgroundColor=none;fontFamily=Georgia;fontSize=11;fontStyle=1" edge="1" parent="1" source="x7ulBtDoPjCledtimS2O-13" target="x7ulBtDoPjCledtimS2O-38">
          <mxGeometry relative="1" as="geometry" />
        </mxCell>
        <mxCell id="x7ulBtDoPjCledtimS2O-13" value="&lt;span style=&quot;letter-spacing: -0.4px; text-align: left; white-space: pre;&quot;&gt;RÃ©server terrain&lt;/span&gt;" style="rounded=1;whiteSpace=wrap;html=1;arcSize=40;fontColor=default;fillColor=#ffffc0;strokeColor=default;labelBackgroundColor=none;fontSize=11;fontStyle=1;fontFamily=Georgia;" vertex="1" parent="1">
          <mxGeometry x="-237" y="1461" width="120" height="30" as="geometry" />
        </mxCell>
        <mxCell id="x7ulBtDoPjCledtimS2O-67" style="edgeStyle=orthogonalEdgeStyle;rounded=0;orthogonalLoop=1;jettySize=auto;html=1;exitX=0.5;exitY=1;exitDx=0;exitDy=0;fontColor=default;labelBackgroundColor=none;fontFamily=Georgia;fontSize=11;fontStyle=1" edge="1" parent="1" source="x7ulBtDoPjCledtimS2O-14">
          <mxGeometry relative="1" as="geometry">
            <mxPoint x="250" y="1760" as="targetPoint" />
            <Array as="points">
              <mxPoint x="-317" y="1530" />
              <mxPoint x="-340" y="1530" />
              <mxPoint x="-340" y="1660" />
              <mxPoint x="250" y="1660" />
            </Array>
          </mxGeometry>
        </mxCell>
        <mxCell id="x7ulBtDoPjCledtimS2O-14" value="&lt;span style=&quot;letter-spacing: -0.4px; text-align: left; white-space: pre;&quot;&gt;Consulter horaires gym&lt;/span&gt;" style="rounded=1;whiteSpace=wrap;html=1;arcSize=40;fontColor=default;fillColor=#ffffc0;strokeColor=default;labelBackgroundColor=none;fontSize=11;fontStyle=1;fontFamily=Georgia;" vertex="1" parent="1">
          <mxGeometry x="-377" y="1461" width="120" height="30" as="geometry" />
        </mxCell>
        <mxCell id="x7ulBtDoPjCledtimS2O-25" style="edgeStyle=orthogonalEdgeStyle;rounded=0;orthogonalLoop=1;jettySize=auto;html=1;exitX=0.5;exitY=1;exitDx=0;exitDy=0;entryX=0.5;entryY=0;entryDx=0;entryDy=0;labelBackgroundColor=none;fontColor=default;fontFamily=Georgia;fontStyle=1;fontSize=11;" edge="1" parent="1" source="x7ulBtDoPjCledtimS2O-21" target="x7ulBtDoPjCledtimS2O-9">
          <mxGeometry relative="1" as="geometry">
            <Array as="points">
              <mxPoint x="-17" y="1441" />
              <mxPoint x="83" y="1441" />
            </Array>
          </mxGeometry>
        </mxCell>
        <mxCell id="x7ulBtDoPjCledtimS2O-26" style="edgeStyle=orthogonalEdgeStyle;rounded=0;orthogonalLoop=1;jettySize=auto;html=1;entryX=0.5;entryY=0;entryDx=0;entryDy=0;exitX=0.677;exitY=0.981;exitDx=0;exitDy=0;exitPerimeter=0;labelBackgroundColor=none;fontColor=default;fontFamily=Georgia;fontStyle=1;fontSize=11;" edge="1" parent="1" source="x7ulBtDoPjCledtimS2O-21" target="x7ulBtDoPjCledtimS2O-10">
          <mxGeometry relative="1" as="geometry">
            <mxPoint x="156.63636363636363" y="1441" as="targetPoint" />
            <Array as="points">
              <mxPoint x="3" y="1401" />
              <mxPoint x="3" y="1431" />
              <mxPoint x="233" y="1431" />
            </Array>
          </mxGeometry>
        </mxCell>
        <mxCell id="x7ulBtDoPjCledtimS2O-28" style="edgeStyle=orthogonalEdgeStyle;rounded=0;orthogonalLoop=1;jettySize=auto;html=1;exitX=0.5;exitY=1;exitDx=0;exitDy=0;labelBackgroundColor=none;fontColor=default;fontFamily=Georgia;fontStyle=1;fontSize=11;" edge="1" parent="1" source="x7ulBtDoPjCledtimS2O-21" target="x7ulBtDoPjCledtimS2O-12">
          <mxGeometry relative="1" as="geometry">
            <Array as="points">
              <mxPoint x="-37" y="1401" />
              <mxPoint x="-37" y="1441" />
              <mxPoint x="-47" y="1441" />
            </Array>
          </mxGeometry>
        </mxCell>
        <mxCell id="x7ulBtDoPjCledtimS2O-29" style="edgeStyle=orthogonalEdgeStyle;rounded=0;orthogonalLoop=1;jettySize=auto;html=1;exitX=0.25;exitY=1;exitDx=0;exitDy=0;entryX=0.5;entryY=0;entryDx=0;entryDy=0;labelBackgroundColor=none;fontColor=default;fontFamily=Georgia;fontStyle=1;fontSize=11;" edge="1" parent="1" source="x7ulBtDoPjCledtimS2O-21" target="x7ulBtDoPjCledtimS2O-13">
          <mxGeometry relative="1" as="geometry">
            <Array as="points">
              <mxPoint x="-57" y="1401" />
              <mxPoint x="-57" y="1441" />
              <mxPoint x="-177" y="1441" />
            </Array>
          </mxGeometry>
        </mxCell>
        <mxCell id="x7ulBtDoPjCledtimS2O-35" style="edgeStyle=orthogonalEdgeStyle;rounded=0;orthogonalLoop=1;jettySize=auto;html=1;exitX=0.75;exitY=1;exitDx=0;exitDy=0;entryX=0.5;entryY=0;entryDx=0;entryDy=0;fontColor=default;labelBackgroundColor=none;fontFamily=Georgia;fontSize=11;fontStyle=1" edge="1" parent="1" source="x7ulBtDoPjCledtimS2O-21" target="x7ulBtDoPjCledtimS2O-34">
          <mxGeometry relative="1" as="geometry">
            <Array as="points">
              <mxPoint x="13" y="1420" />
              <mxPoint x="370" y="1420" />
            </Array>
          </mxGeometry>
        </mxCell>
        <mxCell id="x7ulBtDoPjCledtimS2O-21" value="" style="rounded=0;whiteSpace=wrap;html=1;fillColor=none;strokeColor=default;labelBackgroundColor=none;fontColor=default;fontFamily=Georgia;fontStyle=1;fontSize=11;" vertex="1" parent="1">
          <mxGeometry x="-77" y="1391" width="120" height="10" as="geometry" />
        </mxCell>
        <mxCell id="x7ulBtDoPjCledtimS2O-27" style="edgeStyle=orthogonalEdgeStyle;rounded=0;orthogonalLoop=1;jettySize=auto;html=1;entryX=0.5;entryY=0;entryDx=0;entryDy=0;exitX=0.088;exitY=1.032;exitDx=0;exitDy=0;exitPerimeter=0;labelBackgroundColor=none;fontColor=default;fontFamily=Georgia;fontStyle=1;fontSize=11;" edge="1" parent="1" source="x7ulBtDoPjCledtimS2O-21" target="x7ulBtDoPjCledtimS2O-14">
          <mxGeometry relative="1" as="geometry">
            <mxPoint x="-7" y="1401" as="sourcePoint" />
            <Array as="points">
              <mxPoint x="-66" y="1431" />
              <mxPoint x="-317" y="1431" />
            </Array>
          </mxGeometry>
        </mxCell>
        <mxCell id="x7ulBtDoPjCledtimS2O-68" style="edgeStyle=orthogonalEdgeStyle;rounded=0;orthogonalLoop=1;jettySize=auto;html=1;exitX=0.5;exitY=1;exitDx=0;exitDy=0;fontColor=default;labelBackgroundColor=none;fontFamily=Georgia;fontSize=11;fontStyle=1" edge="1" parent="1" source="x7ulBtDoPjCledtimS2O-34">
          <mxGeometry relative="1" as="geometry">
            <mxPoint x="250" y="1750" as="targetPoint" />
            <Array as="points">
              <mxPoint x="370" y="1500" />
              <mxPoint x="250" y="1500" />
            </Array>
          </mxGeometry>
        </mxCell>
        <mxCell id="x7ulBtDoPjCledtimS2O-34" value="&lt;span style=&quot;letter-spacing: -0.4px; text-align: left; white-space: pre;&quot;&gt;Consulter &lt;/span&gt;&lt;span style=&quot;&quot;&gt;&amp;nbsp;les rÃ©sultats&lt;/span&gt;" style="rounded=1;whiteSpace=wrap;html=1;arcSize=40;fontColor=default;fillColor=#ffffc0;strokeColor=default;labelBackgroundColor=none;fontSize=11;fontStyle=1;fontFamily=Georgia;" vertex="1" parent="1">
          <mxGeometry x="310" y="1461" width="120" height="30" as="geometry" />
        </mxCell>
        <mxCell id="x7ulBtDoPjCledtimS2O-60" style="edgeStyle=orthogonalEdgeStyle;rounded=0;orthogonalLoop=1;jettySize=auto;html=1;fontColor=default;labelBackgroundColor=none;fontFamily=Georgia;fontSize=11;fontStyle=1" edge="1" parent="1" source="x7ulBtDoPjCledtimS2O-36">
          <mxGeometry relative="1" as="geometry">
            <mxPoint x="249.99999999999955" y="1750" as="targetPoint" />
            <Array as="points">
              <mxPoint x="20" y="1660" />
              <mxPoint x="250" y="1660" />
            </Array>
          </mxGeometry>
        </mxCell>
        <mxCell id="x7ulBtDoPjCledtimS2O-36" value="&lt;span style=&quot;letter-spacing: -0.4px; text-align: left; white-space: pre;&quot;&gt;S&#39;inscrire au tournoi&lt;/span&gt;" style="rounded=1;whiteSpace=wrap;html=1;arcSize=40;fontColor=default;fillColor=#ffffc0;strokeColor=default;labelBackgroundColor=none;fontSize=11;fontStyle=1;fontFamily=Georgia;" vertex="1" parent="1">
          <mxGeometry x="-40" y="1590" width="120" height="30" as="geometry" />
        </mxCell>
        <mxCell id="x7ulBtDoPjCledtimS2O-38" value="&lt;span style=&quot;letter-spacing: -0.4px; text-align: left; white-space: pre;&quot;&gt;heure disponible ? &lt;/span&gt;" style="rhombus;whiteSpace=wrap;html=1;fontColor=default;fillColor=#ffffc0;strokeColor=default;labelBackgroundColor=none;fontSize=11;fontStyle=1;fontFamily=Georgia;" vertex="1" parent="1">
          <mxGeometry x="-270" y="1510" width="130" height="40" as="geometry" />
        </mxCell>
        <mxCell id="x7ulBtDoPjCledtimS2O-39" value="no" style="edgeStyle=orthogonalEdgeStyle;html=1;align=left;verticalAlign=bottom;endArrow=open;endSize=8;strokeColor=#000000;rounded=0;exitX=1;exitY=0.5;exitDx=0;exitDy=0;fontColor=default;labelBackgroundColor=none;fontFamily=Georgia;fontSize=11;fontStyle=1" edge="1" source="x7ulBtDoPjCledtimS2O-38" parent="1">
          <mxGeometry x="-1" relative="1" as="geometry">
            <mxPoint x="-110" y="1600" as="targetPoint" />
            <mxPoint x="-55" y="1529.75" as="sourcePoint" />
            <Array as="points">
              <mxPoint x="-110" y="1530" />
              <mxPoint x="-110" y="1590" />
            </Array>
          </mxGeometry>
        </mxCell>
        <mxCell id="x7ulBtDoPjCledtimS2O-40" value="yes" style="edgeStyle=orthogonalEdgeStyle;html=1;align=left;verticalAlign=top;endArrow=open;endSize=8;strokeColor=#000000;rounded=0;fontColor=default;labelBackgroundColor=none;fontSize=11;fontStyle=1;fontFamily=Georgia;entryX=0.5;entryY=0;entryDx=0;entryDy=0;exitX=0.029;exitY=0.547;exitDx=0;exitDy=0;exitPerimeter=0;" edge="1" source="x7ulBtDoPjCledtimS2O-38" parent="1" target="x7ulBtDoPjCledtimS2O-42">
          <mxGeometry x="-1" relative="1" as="geometry">
            <mxPoint x="-205" y="1590" as="targetPoint" />
            <Array as="points">
              <mxPoint x="-270" y="1532" />
              <mxPoint x="-270" y="1580" />
              <mxPoint x="-262" y="1580" />
            </Array>
          </mxGeometry>
        </mxCell>
        <mxCell id="x7ulBtDoPjCledtimS2O-58" style="edgeStyle=orthogonalEdgeStyle;rounded=0;orthogonalLoop=1;jettySize=auto;html=1;entryX=0.5;entryY=0;entryDx=0;entryDy=0;fontColor=default;labelBackgroundColor=none;fontFamily=Georgia;fontSize=11;fontStyle=1" edge="1" parent="1" source="x7ulBtDoPjCledtimS2O-42" target="x7ulBtDoPjCledtimS2O-57">
          <mxGeometry relative="1" as="geometry">
            <Array as="points">
              <mxPoint x="-262" y="1660" />
              <mxPoint x="250" y="1660" />
            </Array>
          </mxGeometry>
        </mxCell>
        <mxCell id="x7ulBtDoPjCledtimS2O-42" value="&lt;span style=&quot;letter-spacing: -0.4px; text-align: left; white-space: pre;&quot;&gt;RÃ©servervation valide&lt;/span&gt;" style="rounded=1;whiteSpace=wrap;html=1;arcSize=40;fontColor=default;fillColor=#ffffc0;strokeColor=default;labelBackgroundColor=none;fontSize=11;fontStyle=1;fontFamily=Georgia;" vertex="1" parent="1">
          <mxGeometry x="-330" y="1600" width="135" height="30" as="geometry" />
        </mxCell>
        <mxCell id="x7ulBtDoPjCledtimS2O-59" style="edgeStyle=orthogonalEdgeStyle;rounded=0;orthogonalLoop=1;jettySize=auto;html=1;exitX=0.5;exitY=1;exitDx=0;exitDy=0;fontColor=default;labelBackgroundColor=none;fontFamily=Georgia;fontSize=11;fontStyle=1" edge="1" parent="1" source="x7ulBtDoPjCledtimS2O-43">
          <mxGeometry relative="1" as="geometry">
            <mxPoint x="249.99999999999955" y="1750" as="targetPoint" />
            <Array as="points">
              <mxPoint x="-115" y="1660" />
              <mxPoint x="250" y="1660" />
            </Array>
          </mxGeometry>
        </mxCell>
        <mxCell id="x7ulBtDoPjCledtimS2O-43" value="&lt;span style=&quot;letter-spacing: -0.4px; text-align: left; white-space: pre;&quot;&gt;non valide&lt;/span&gt;" style="rounded=1;whiteSpace=wrap;html=1;arcSize=40;fontColor=default;fillColor=#ffffc0;strokeColor=default;labelBackgroundColor=none;fontSize=11;fontStyle=1;fontFamily=Georgia;" vertex="1" parent="1">
          <mxGeometry x="-170" y="1600" width="110" height="30" as="geometry" />
        </mxCell>
        <mxCell id="x7ulBtDoPjCledtimS2O-64" style="edgeStyle=orthogonalEdgeStyle;rounded=0;orthogonalLoop=1;jettySize=auto;html=1;fontColor=default;labelBackgroundColor=none;fontFamily=Georgia;fontSize=11;fontStyle=1" edge="1" parent="1" source="x7ulBtDoPjCledtimS2O-44" target="x7ulBtDoPjCledtimS2O-57">
          <mxGeometry relative="1" as="geometry">
            <Array as="points">
              <mxPoint x="740" y="1660" />
              <mxPoint x="250" y="1660" />
            </Array>
          </mxGeometry>
        </mxCell>
        <mxCell id="x7ulBtDoPjCledtimS2O-44" value="&lt;span style=&quot;letter-spacing: -0.4px; text-align: left; white-space: pre;&quot;&gt;Envoyer des notifications&lt;/span&gt;" style="rounded=1;whiteSpace=wrap;html=1;arcSize=40;fontColor=default;fillColor=#ffffc0;strokeColor=default;labelBackgroundColor=none;fontSize=11;fontStyle=1;fontFamily=Georgia;" vertex="1" parent="1">
          <mxGeometry x="676" y="1540" width="140" height="30" as="geometry" />
        </mxCell>
        <mxCell id="x7ulBtDoPjCledtimS2O-63" style="edgeStyle=orthogonalEdgeStyle;rounded=0;orthogonalLoop=1;jettySize=auto;html=1;exitX=0.5;exitY=1;exitDx=0;exitDy=0;fontColor=default;labelBackgroundColor=none;fontFamily=Georgia;fontSize=11;fontStyle=1" edge="1" parent="1" source="x7ulBtDoPjCledtimS2O-45">
          <mxGeometry relative="1" as="geometry">
            <mxPoint x="249.99999999999955" y="1750" as="targetPoint" />
          </mxGeometry>
        </mxCell>
        <mxCell id="x7ulBtDoPjCledtimS2O-45" value="&lt;span style=&quot;letter-spacing: -0.4px; text-align: left; white-space: pre;&quot;&gt;Planifier les matches&lt;/span&gt;" style="rounded=1;whiteSpace=wrap;html=1;arcSize=40;fontColor=default;fillColor=#ffffc0;strokeColor=default;labelBackgroundColor=none;fontSize=11;fontStyle=1;fontFamily=Georgia;" vertex="1" parent="1">
          <mxGeometry x="550" y="1540" width="120" height="30" as="geometry" />
        </mxCell>
        <mxCell id="x7ulBtDoPjCledtimS2O-62" style="edgeStyle=orthogonalEdgeStyle;rounded=0;orthogonalLoop=1;jettySize=auto;html=1;exitX=0.5;exitY=1;exitDx=0;exitDy=0;entryX=0.5;entryY=0;entryDx=0;entryDy=0;fontColor=default;labelBackgroundColor=none;fontFamily=Georgia;fontSize=11;fontStyle=1" edge="1" parent="1" source="x7ulBtDoPjCledtimS2O-46" target="x7ulBtDoPjCledtimS2O-57">
          <mxGeometry relative="1" as="geometry">
            <mxPoint x="249.99999999999955" y="1740" as="targetPoint" />
          </mxGeometry>
        </mxCell>
        <mxCell id="x7ulBtDoPjCledtimS2O-46" value="&lt;span style=&quot;letter-spacing: -0.4px; text-align: left; white-space: pre;&quot;&gt;CrÃ©er des tournois&lt;/span&gt;" style="rounded=1;whiteSpace=wrap;html=1;arcSize=40;fontColor=default;fillColor=#ffffc0;strokeColor=default;labelBackgroundColor=none;fontSize=11;fontStyle=1;fontFamily=Georgia;" vertex="1" parent="1">
          <mxGeometry x="410" y="1540" width="120" height="30" as="geometry" />
        </mxCell>
        <mxCell id="x7ulBtDoPjCledtimS2O-61" style="edgeStyle=orthogonalEdgeStyle;rounded=0;orthogonalLoop=1;jettySize=auto;html=1;exitX=0.5;exitY=1;exitDx=0;exitDy=0;entryX=0.5;entryY=0;entryDx=0;entryDy=0;fontColor=default;labelBackgroundColor=none;fontFamily=Georgia;fontSize=11;fontStyle=1" edge="1" parent="1" source="x7ulBtDoPjCledtimS2O-47" target="x7ulBtDoPjCledtimS2O-57">
          <mxGeometry relative="1" as="geometry" />
        </mxCell>
        <mxCell id="x7ulBtDoPjCledtimS2O-47" value="&lt;span style=&quot;letter-spacing: -0.4px; text-align: left; white-space: pre;&quot;&gt;GÃ©rer les utilisateurs&lt;/span&gt;" style="rounded=1;whiteSpace=wrap;html=1;arcSize=40;fontColor=default;fillColor=#ffffc0;strokeColor=default;labelBackgroundColor=none;fontSize=11;fontStyle=1;fontFamily=Georgia;" vertex="1" parent="1">
          <mxGeometry x="285" y="1540" width="120" height="30" as="geometry" />
        </mxCell>
        <mxCell id="x7ulBtDoPjCledtimS2O-65" style="edgeStyle=orthogonalEdgeStyle;rounded=0;orthogonalLoop=1;jettySize=auto;html=1;exitX=0.5;exitY=1;exitDx=0;exitDy=0;entryX=0.5;entryY=0;entryDx=0;entryDy=0;fontColor=default;labelBackgroundColor=none;fontFamily=Georgia;fontSize=11;fontStyle=1" edge="1" parent="1" source="x7ulBtDoPjCledtimS2O-48" target="x7ulBtDoPjCledtimS2O-57">
          <mxGeometry relative="1" as="geometry" />
        </mxCell>
        <mxCell id="x7ulBtDoPjCledtimS2O-48" value="&lt;span style=&quot;letter-spacing: -0.4px; text-align: left; white-space: pre;&quot;&gt;GÃ©nÃ©rer des rapports&lt;/span&gt;" style="rounded=1;whiteSpace=wrap;html=1;arcSize=40;fontColor=default;fillColor=#ffffc0;strokeColor=default;labelBackgroundColor=none;fontSize=11;fontStyle=1;fontFamily=Georgia;" vertex="1" parent="1">
          <mxGeometry x="820" y="1540" width="120" height="30" as="geometry" />
        </mxCell>
        <mxCell id="x7ulBtDoPjCledtimS2O-52" style="edgeStyle=orthogonalEdgeStyle;rounded=0;orthogonalLoop=1;jettySize=auto;html=1;exitX=0;exitY=1;exitDx=0;exitDy=0;entryX=0.5;entryY=0;entryDx=0;entryDy=0;fontColor=default;labelBackgroundColor=none;fontFamily=Georgia;fontSize=11;fontStyle=1" edge="1" parent="1" source="x7ulBtDoPjCledtimS2O-50" target="x7ulBtDoPjCledtimS2O-47">
          <mxGeometry relative="1" as="geometry">
            <Array as="points">
              <mxPoint x="630" y="1420" />
              <mxPoint x="630" y="1510" />
              <mxPoint x="345" y="1510" />
            </Array>
          </mxGeometry>
        </mxCell>
        <mxCell id="x7ulBtDoPjCledtimS2O-53" style="edgeStyle=orthogonalEdgeStyle;rounded=0;orthogonalLoop=1;jettySize=auto;html=1;exitX=0.155;exitY=1.04;exitDx=0;exitDy=0;entryX=0.5;entryY=0;entryDx=0;entryDy=0;exitPerimeter=0;fontColor=default;labelBackgroundColor=none;fontFamily=Georgia;fontSize=11;fontStyle=1" edge="1" parent="1" source="x7ulBtDoPjCledtimS2O-50" target="x7ulBtDoPjCledtimS2O-46">
          <mxGeometry relative="1" as="geometry">
            <Array as="points">
              <mxPoint x="640" y="1420" />
              <mxPoint x="640" y="1520" />
              <mxPoint x="470" y="1520" />
            </Array>
          </mxGeometry>
        </mxCell>
        <mxCell id="x7ulBtDoPjCledtimS2O-54" style="edgeStyle=orthogonalEdgeStyle;rounded=0;orthogonalLoop=1;jettySize=auto;html=1;exitX=0.302;exitY=1.08;exitDx=0;exitDy=0;exitPerimeter=0;fontColor=default;labelBackgroundColor=none;fontFamily=Georgia;fontSize=11;fontStyle=1" edge="1" parent="1" source="x7ulBtDoPjCledtimS2O-50" target="x7ulBtDoPjCledtimS2O-45">
          <mxGeometry relative="1" as="geometry">
            <Array as="points">
              <mxPoint x="660" y="1421" />
              <mxPoint x="660" y="1530" />
              <mxPoint x="610" y="1530" />
            </Array>
          </mxGeometry>
        </mxCell>
        <mxCell id="x7ulBtDoPjCledtimS2O-55" style="edgeStyle=orthogonalEdgeStyle;rounded=0;orthogonalLoop=1;jettySize=auto;html=1;exitX=0.5;exitY=1;exitDx=0;exitDy=0;fontColor=default;labelBackgroundColor=none;fontFamily=Georgia;fontSize=11;fontStyle=1" edge="1" parent="1" source="x7ulBtDoPjCledtimS2O-50" target="x7ulBtDoPjCledtimS2O-44">
          <mxGeometry relative="1" as="geometry">
            <Array as="points">
              <mxPoint x="685" y="1530" />
              <mxPoint x="740" y="1530" />
            </Array>
          </mxGeometry>
        </mxCell>
        <mxCell id="x7ulBtDoPjCledtimS2O-56" style="edgeStyle=orthogonalEdgeStyle;rounded=0;orthogonalLoop=1;jettySize=auto;html=1;exitX=0.75;exitY=1;exitDx=0;exitDy=0;entryX=0.5;entryY=0;entryDx=0;entryDy=0;fontColor=default;labelBackgroundColor=none;fontFamily=Georgia;fontSize=11;fontStyle=1" edge="1" parent="1" source="x7ulBtDoPjCledtimS2O-50" target="x7ulBtDoPjCledtimS2O-48">
          <mxGeometry relative="1" as="geometry">
            <Array as="points">
              <mxPoint x="715" y="1510" />
              <mxPoint x="880" y="1510" />
            </Array>
          </mxGeometry>
        </mxCell>
        <mxCell id="x7ulBtDoPjCledtimS2O-50" value="" style="rounded=0;whiteSpace=wrap;html=1;fillColor=none;strokeColor=default;labelBackgroundColor=none;fontColor=default;fontFamily=Georgia;fontStyle=1;fontSize=11;" vertex="1" parent="1">
          <mxGeometry x="625" y="1410" width="120" height="10" as="geometry" />
        </mxCell>
        <mxCell id="x7ulBtDoPjCledtimS2O-57" value="&lt;span style=&quot;letter-spacing: -0.4px; text-align: left; white-space: pre;&quot;&gt;Se dÃ©connecter&lt;/span&gt;" style="rounded=1;whiteSpace=wrap;html=1;arcSize=40;fontColor=default;fillColor=#ffffc0;strokeColor=default;labelBackgroundColor=none;fontSize=11;fontStyle=1;fontFamily=Georgia;" vertex="1" parent="1">
          <mxGeometry x="190" y="1750" width="120" height="30" as="geometry" />
        </mxCell>
        <mxCell id="x7ulBtDoPjCledtimS2O-69" value="" style="ellipse;html=1;shape=startState;fillColor=#000000;strokeColor=default;fontColor=default;labelBackgroundColor=none;fontSize=11;fontStyle=1;fontFamily=Georgia;" vertex="1" parent="1">
          <mxGeometry x="230" y="1800" width="40" height="40" as="geometry" />
        </mxCell>
        <mxCell id="x7ulBtDoPjCledtimS2O-70" style="edgeStyle=orthogonalEdgeStyle;rounded=0;orthogonalLoop=1;jettySize=auto;html=1;entryX=0.513;entryY=0.141;entryDx=0;entryDy=0;entryPerimeter=0;fontColor=default;labelBackgroundColor=none;fontFamily=Georgia;fontSize=11;fontStyle=1" edge="1" parent="1" source="x7ulBtDoPjCledtimS2O-57" target="x7ulBtDoPjCledtimS2O-69">
          <mxGeometry relative="1" as="geometry" />
        </mxCell>
      </root>
    </mxGraphModel>
  </diagram>
</mxfile>
